# xmcd
#
# Track frame offsets: 
#        150
#        12957
#        22695
#        33267
#        46375
#        56580
#        66030
#        76042
#        88940
#        99272
#        109532
#        120162
#        130422
#        141462
#
# Disc length: 2024 seconds
#
# Revision: 1
# Processed by: cddbd v1.5.2PL0 Copyright (c) Steve Scherf et al.
# Submitted via: ExactAudioCopy v0.99pb5
#
DISCID=a607e60e
DTITLE=Waylon Jennings - Love of the Common People
DYEAR=1967
DGENRE=Country
TTITLE0=Money Cannot Make the Man
TTITLE1=Young Widow Brown
TTITLE2=You´ve Got to Hide Your Love Away
TTITLE3=Love of the Common People
TTITLE4=I Tremble for You
TTITLE5=Destiny´s Child
TTITLE6=Ruby, Don`t Take Your Love to Town
TTITLE7=The Road
TTITLE8=If the Shoe Fiits
TTITLE9=Don´t Waste Your Time
TTITLE10=Taos, New Mexico
TTITLE11=Two Streaks of Steel
TTITLE12=The Chokin' Kind (Single) [Bonus Track]
TTITLE13=Walk on out of My Mind [Bonus Track]
EXTD=
EXTT0=
EXTT1=
EXTT2=
EXTT3=
EXTT4=
EXTT5=
EXTT6=
EXTT7=
EXTT8=
EXTT9=
EXTT10=
EXTT11=
EXTT12=
EXTT13=
PLAYORDER=
